<svg xmlns="http://www.w3.org/2000/svg" width="100" height="100" viewBox="0 0 100 100" version="1.1" xml:space="preserve" stroke-linejoin="round"><path d="M49.9 0.2c-6.8 0-13.5 0-20.3 0.3 -5 0.2-9.9 1-14.5 3.2 -4.8 2.3-9 6.4-11.4 11.1 -3.4 6.7-3.6 14.4-3.7 21.7 -0.2 8.8-0.1 17.6 0 26.4 0.1 7.2 0.2 14.6 3.2 21.3 2.2 4.9 6.1 9.1 10.9 11.7 4.5 2.4 9.5 3.4 14.5 3.7 6.6 0.4 13.2 0.3 19.8 0.3 7.1 0 14.2 0 21.2-0.3 4.8-0.2 9.5-0.8 13.9-2.7 5-2.1 9.3-5.9 12-10.6 3.9-6.8 4.1-14.6 4.3-22.2 0.2-8.8 0.1-17.6 0-26.3 -0.1-7-0.1-14.2-2.7-20.8 -2-5-5.6-9.4-10.3-12.2 -4.2-2.6-9.2-3.8-14.1-4.2 -6.6-0.6-13.2-0.4-19.8-0.4 -1 0-2 0-3 0 -13.5 0 13.6 0 0 0Zm0 9c6.7 0 13.3 0 20 0.3 4.3 0.2 8.8 0.9 12.5 3.3 3.9 2.5 6.3 6.5 7.3 10.9 0.8 3.4 0.8 6.8 0.9 10.3 0.1 3 0.1 6 0.1 9 0 8.1 0.2 16.2-0.2 24.3 -0.1 3.6-0.2 7.3-1.3 10.8 -1.4 4.6-4.4 8.5-8.8 10.6 -5.8 2.7-12.6 2.4-18.8 2.5 -8.7 0.1-17.4 0.1-26 0 -6.9-0.1-14.8 0-20.3-5 -5.9-5.4-6.2-13.3-6.4-20.8 -0.2-8.6-0.1-17.2-0.1-25.7 0-6.1-0.3-12.7 1.9-18.5 1.8-4.7 5.4-8.3 10.2-10 3.5-1.3 7.3-1.4 11-1.6 5.9-0.2 11.9-0.2 17.9-0.2 13.3 0-13.3 0 0 0Zm0 57.6c-9.2 0-16.6-7.4-16.6-16.6 0-9.2 7.4-16.7 16.6-16.7 9.2 0 16.7 7.5 16.7 16.7 0 9.2-7.5 16.6-16.7 16.6Zm0-42.3c-14.2 0-25.6 11.5-25.6 25.6 0 14.2 11.5 25.6 25.6 25.6 14.2 0 25.6-11.5 25.6-25.6 0-14.2-11.5-25.6-25.6-25.6Zm32.6-1c0 3.3-2.7 6-6 6 -3.3 0-6-2.7-6-6 0-3.3 2.7-6 6-6 3.3 0 6 2.7 6 6Z" fill="#e92307"/></svg>
