<svg xmlns="http://www.w3.org/2000/svg" version="1.1" x="0" y="0" viewBox="0 0 629.1 500" xml:space="preserve"><style type="text/css">
	.st0{fill:#E92307;}
</style><path class="st0" d="M619 61.1c-22.4 9.9-46.5 16.7-71.8 19.7 25.8-15.5 45.6-40 54.9-69.2C578.1 26 551.3 36.4 522.9 42 500 17.7 467.6 2.5 431.6 2.5c-69 0-125 56-125 125 0 9.8 1.1 19.3 3.2 28.5C206.1 150.7 114 101 52.3 25.4 41.6 43.8 35.4 65.3 35.4 88.2c0 43.4 22.1 81.6 55.6 104 -20.5-0.6-39.7-6.3-56.6-15.6 0 0.5 0 1 0 1.6 0 60.6 43.1 111.1 100.2 122.5 -10.5 2.9-21.5 4.4-32.9 4.4 -8.1 0-15.9-0.8-23.5-2.2 15.9 49.6 62.1 85.8 116.7 86.8 -42.8 33.5-96.7 53.5-155.2 53.5 -10.1 0-20-0.6-29.8-1.7 55.3 35.5 121 56.1 191.6 56.1 229.8 0 355.5-190.4 355.5-355.6 0-5.4-0.1-10.8-0.4-16.2C581.1 108.2 602.3 86.2 619 61.1"/></svg>